<svg width="20" height="20" viewBox="0 0 20 20" xmlns="http://www.w3.org/2000/svg">
<path d="M18.2146 2.68129H14.4646V1.25271C14.4646 1.1545 14.3843 1.07414 14.2861 1.07414H13.0361C12.9378 1.07414 12.8575 1.1545 12.8575 1.25271V2.68129H7.14321V1.25271C7.14321 1.1545 7.06285 1.07414 6.96463 1.07414H5.71463C5.61642 1.07414 5.53606 1.1545 5.53606 1.25271V2.68129H1.78606C1.39097 2.68129 1.07178 3.00048 1.07178 3.39557V18.217C1.07178 18.6121 1.39097 18.9313 1.78606 18.9313H18.2146C18.6097 18.9313 18.9289 18.6121 18.9289 18.217V3.39557C18.9289 3.00048 18.6097 2.68129 18.2146 2.68129ZM17.3218 17.3241H2.67892V8.842H17.3218V17.3241ZM2.67892 7.32414V4.28843H5.53606V5.35986C5.53606 5.45807 5.61642 5.53843 5.71463 5.53843H6.96463C7.06285 5.53843 7.14321 5.45807 7.14321 5.35986V4.28843H12.8575V5.35986C12.8575 5.45807 12.9378 5.53843 13.0361 5.53843H14.2861C14.3843 5.53843 14.4646 5.45807 14.4646 5.35986V4.28843H17.3218V7.32414H2.67892Z" />
</svg>
