<svg width="20" height="20" viewBox="0 0 20 20" xmlns="http://www.w3.org/2000/svg">
<g clip-path="url(#clip0_410_7556)">
<path d="M17.1426 0H5.17829C5.08008 0 4.99972 0.0803571 4.99972 0.178571V1.42857C4.99972 1.52679 5.08008 1.60714 5.17829 1.60714H16.2497V16.9643C16.2497 17.0625 16.3301 17.1429 16.4283 17.1429H17.6783C17.7765 17.1429 17.8569 17.0625 17.8569 16.9643V0.714286C17.8569 0.319196 17.5377 0 17.1426 0ZM14.2854 2.85714H2.85686C2.46177 2.85714 2.14258 3.17634 2.14258 3.57143V15.4174C2.14258 15.6071 2.21847 15.7879 2.3524 15.9219L6.2207 19.7902C6.26981 19.8393 6.32561 19.8795 6.38588 19.9129V19.9554H6.47963C6.55776 19.9844 6.64035 20 6.72517 20H14.2854C14.6805 20 14.9997 19.6808 14.9997 19.2857V3.57143C14.9997 3.17634 14.6805 2.85714 14.2854 2.85714ZM6.38365 17.683L4.46177 15.7589H6.38365V17.683ZM13.3926 18.3929H7.81222V15.2232C7.81222 14.7299 7.41267 14.3304 6.91936 14.3304H3.74972V4.46429H13.3926V18.3929Z"/>
</g>
<defs>
<clipPath id="clip0_410_7556">
<rect width="20" height="20"/>
</clipPath>
</defs>
</svg>
