<svg width="20" height="16" viewBox="0 0 20 16" xmlns="http://www.w3.org/2000/svg">
<path d="M19.6028 7.42546C17.4867 2.96787 14.2881 0.724564 10.0001 0.724564C5.70995 0.724564 2.51352 2.96787 0.39745 7.42769C0.312574 7.60741 0.268555 7.80371 0.268555 8.00247C0.268555 8.20122 0.312574 8.39752 0.39745 8.57724C2.51352 13.0348 5.71218 15.2781 10.0001 15.2781C14.2903 15.2781 17.4867 13.0348 19.6028 8.57501C19.7747 8.2134 19.7747 7.79376 19.6028 7.42546ZM10.0001 13.671C6.39968 13.671 3.76352 11.8451 1.90415 8.00135C3.76352 4.1576 6.39968 2.33171 10.0001 2.33171C13.6006 2.33171 16.2367 4.1576 18.0961 8.00135C16.239 11.8451 13.6028 13.671 10.0001 13.671ZM9.91084 4.07278C7.7412 4.07278 5.98227 5.83171 5.98227 8.00135C5.98227 10.171 7.7412 11.9299 9.91084 11.9299C12.0805 11.9299 13.8394 10.171 13.8394 8.00135C13.8394 5.83171 12.0805 4.07278 9.91084 4.07278ZM9.91084 10.5013C8.52915 10.5013 7.41084 9.38305 7.41084 8.00135C7.41084 6.61965 8.52915 5.50135 9.91084 5.50135C11.2925 5.50135 12.4108 6.61965 12.4108 8.00135C12.4108 9.38305 11.2925 10.5013 9.91084 10.5013Z"/>
</svg>
