<svg width="20" height="20" viewBox="0 0 20 20" xmlns="http://www.w3.org/2000/svg">
<g clip-path="url(#clip0_410_7447)">
<path d="M17.6475 5.01339L12.844 0.209821C12.71 0.0758929 12.5292 0 12.3395 0H2.85735C2.46226 0 2.14307 0.319196 2.14307 0.714286V19.2857C2.14307 19.6808 2.46226 20 2.85735 20H17.1431C17.5382 20 17.8574 19.6808 17.8574 19.2857V5.52009C17.8574 5.33036 17.7815 5.14732 17.6475 5.01339ZM16.21 5.84821H12.0091V1.64732L16.21 5.84821ZM16.2502 18.3929H3.75021V1.60714H10.4913V6.42857C10.4913 6.67721 10.5901 6.91567 10.7659 7.09148C10.9417 7.2673 11.1801 7.36607 11.4288 7.36607H16.2502V18.3929ZM9.82164 12.3661H5.7145C5.61628 12.3661 5.53592 12.4464 5.53592 12.5446V13.6161C5.53592 13.7143 5.61628 13.7946 5.7145 13.7946H9.82164C9.91985 13.7946 10.0002 13.7143 10.0002 13.6161V12.5446C10.0002 12.4464 9.91985 12.3661 9.82164 12.3661ZM5.53592 9.50893V10.5804C5.53592 10.6786 5.61628 10.7589 5.7145 10.7589H14.2859C14.3841 10.7589 14.4645 10.6786 14.4645 10.5804V9.50893C14.4645 9.41071 14.3841 9.33036 14.2859 9.33036H5.7145C5.61628 9.33036 5.53592 9.41071 5.53592 9.50893Z"/>
</g>
<defs>
<clipPath id="clip0_410_7447">
<rect width="20" height="20"/>
</clipPath>
</defs>
</svg>
