<svg width="20" height="20" viewBox="0 0 20 20" xmlns="http://www.w3.org/2000/svg">
<path d="M18.8753 17.6478L13.0785 11.8509C13.978 10.688 14.4646 9.26611 14.4646 7.77057C14.4646 5.98039 13.766 4.30182 12.5026 3.0362C11.2392 1.77057 9.55615 1.07414 7.76821 1.07414C5.98026 1.07414 4.29722 1.7728 3.03383 3.0362C1.76821 4.29959 1.07178 5.98039 1.07178 7.77057C1.07178 9.55852 1.77044 11.2416 3.03383 12.5049C4.29722 13.7706 5.97803 14.467 7.76821 14.467C9.26374 14.467 10.6834 13.9804 11.8463 13.0831L17.6432 18.8777C17.6602 18.8947 17.6804 18.9082 17.7026 18.9174C17.7248 18.9266 17.7486 18.9314 17.7727 18.9314C17.7967 18.9314 17.8205 18.9266 17.8427 18.9174C17.865 18.9082 17.8851 18.8947 17.9021 18.8777L18.8753 17.9067C18.8924 17.8897 18.9058 17.8696 18.9151 17.8473C18.9243 17.8251 18.929 17.8013 18.929 17.7773C18.929 17.7532 18.9243 17.7294 18.9151 17.7072C18.9058 17.685 18.8924 17.6648 18.8753 17.6478ZM11.3039 11.3063C10.3575 12.2505 9.10303 12.7706 7.76821 12.7706C6.43338 12.7706 5.17892 12.2505 4.23249 11.3063C3.2883 10.3599 2.76821 9.10539 2.76821 7.77057C2.76821 6.43575 3.2883 5.17905 4.23249 4.23486C5.17892 3.29066 6.43338 2.77057 7.76821 2.77057C9.10303 2.77057 10.3597 3.28843 11.3039 4.23486C12.2481 5.18129 12.7682 6.43575 12.7682 7.77057C12.7682 9.10539 12.2481 10.3621 11.3039 11.3063Z" />
</svg>
